<?xml version="1.0" standalone="no"?>
<!DOCTYPE svg PUBLIC "-//W3C//DTD SVG 20010904//EN"
 "http://www.w3.org/TR/2001/REC-SVG-20010904/DTD/svg10.dtd">
<svg version="1.0" xmlns="http://www.w3.org/2000/svg"
 width="600.000000pt" height="600.000000pt" viewBox="0 0 600.000000 600.000000"
 preserveAspectRatio="xMidYMid meet">

<g transform="translate(0.000000,600.000000) scale(0.100000,-0.100000)"
fill="#000000" stroke="none">
<path d="M0 3000 l0 -3000 3000 0 3000 0 0 3000 0 3000 -3000 0 -3000 0 0
-3000z m3870 2510 l0 -140 -80 0 c-79 0 -80 0 -80 -25 0 -25 1 -25 80 -25 l80
0 0 -150 0 -151 -137 3 -138 3 -3 69 -3 69 71 -6 c69 -6 70 -6 70 19 0 23 -3
24 -69 24 l-69 0 -4 113 c-2 61 -2 122 1 135 4 15 51 52 141 112 74 50 136 90
138 90 1 0 2 -63 2 -140z m-348 -1772 l3 -1623 30 0 30 0 3 384 2 384 92 -7
c50 -3 198 -6 330 -6 l238 0 0 -720 0 -720 -330 0 -330 0 0 200 0 200 -40 0
-40 0 -2 -198 -3 -197 -337 -3 -338 -2 0 1513 0 1513 143 229 142 229 5 -1394
5 -1395 35 0 35 0 3 1463 2 1463 152 155 c83 85 155 154 160 154 4 0 9 -730
10 -1622z m348 222 l0 -980 -134 0 c-113 0 -135 2 -140 16 -8 21 -8 1929 1
1937 3 4 66 7 140 7 l133 0 0 -980z m-1125 -2518 c-3 -10 -108 -12 -497 -10
l-493 3 -3 148 -3 147 274 0 c151 0 315 3 365 6 l91 7 3 721 4 721 27 150 c49
277 134 631 205 855 l27 85 3 -1410 c1 -775 0 -1416 -3 -1423z m-379 981 c-4
-10 -40 -13 -141 -13 l-135 0 0 -40 0 -40 140 0 140 0 0 -245 0 -245 -240 0
-240 0 0 110 0 110 120 0 120 0 0 35 0 35 -120 0 -120 0 0 223 1 222 237 157
237 158 3 -227 c1 -125 0 -233 -2 -240z m1904 -1134 c0 -5 -4 -7 -10 -4 -17
11 -11 -7 8 -21 15 -12 14 -13 -15 -14 -36 0 -38 2 -23 31 11 20 40 26 40 8z
m-2430 -39 c0 -13 -7 -20 -20 -20 -13 0 -20 7 -20 20 0 13 7 20 20 20 13 0
20 -7 20 -20z m68 -3 c2 -11 -3 -17 -17 -17 -23 0 -35 15 -26 31 10 15 39 6 43
-14z m392 -101 c0 -47 3 -87 8 -89 4 -3 21 -8 39 -12 30 -6 33 -4 47 28 16 39
41 57 79 57 32 0 75 -34 79 -63 4 -26 36 -33 105 -22 51 7 54 20 13 43 -58 33
-25 75 60 76 49 1 110 -20 110 -37 0 -6 -14 -26 -31 -43 l-32 -33 25 -6 c13
-4 44 -5 68 -3 37 2 45 7 50 27 9 39 52 65 94 57 29 -6 40 -15 56 -46 15 -30
27 -40 44 -40 44 0 56 24 56 111 0 77 1 80 22 77 21 -3 22 -7 20 -97 -2 -118
-11 -131 -91 -131 -33 -1 -64 -7 -75 -15 -25 -19 -76 -19 -102 -1 -16 12 -116
24 -204 25 -67 1 -211 -16 -222 -26 -16 -18 -70 -16 -94 2 -12 9 -42 14 -81
15 -84 0 -93 14 -93 137 0 93 0 93 25 93 25 0 25 -1 25 -84z m1000 -31 l0
-115 -25 0 -25 0 115 0 115 25 0 25 0 0 -115z m400 12 c0 -67 -4 -107 -12
-115 -8 -8 -49 -12 -119 -12 -101 0 -109 2 -138 26 -28 23 -31 32 -31 81 0 51
2 54 23 51 18 -2 23 -11 27 -48 6 -55 30 -70 113 -70 92 0 97 6 97 105 0 78 2
85 20 85 19 0 20 -7 20 -103z m232 11 l3 -93 40 0 c36 0 41 3 57 37 44 93 185
31 149 -65 -18 -45 -86 -63 -127 -32 -14 11 -52 14 -161 15 -136 0 -143 1
-143 20 0 13 7 20 19 20 31 0 33 15 11 86 -11 36 -20 68 -20 70 0 2 11 4 24 4
26 0 31 -10 56 -107 6 -26 17 -43 25 -43 12 0 15 17 15 83 0 89 3 97 31 97 16
0 19 -11 21 -92z m338 -23 c0 -107 -1 -115 -19 -115 -18 0 -20 9 -23 111 -2
61 -1 113 1 115 2 2 13 4 23 4 16 0 18 -10 18 -115z m-691 86 c17 -11 5 -32
-14 -24 -9 3 -15 -1 -15 -11 0 -10 9 -16 25 -16 14 0 25 -4 25 -10 0 -5 -21
-10 -46 -10 -38 0 -45 3 -40 16 3 9 6 19 6 24 0 10 29 40 38 40 4 0 13 -4 21
-9z m-1651 -83 l3 -68 49 0 c54 0 63 11 58 75 -3 24 1 31 20 33 21 3 22 0 22
-59 0 -86 -13 -99 -100 -99 -54 0 -70 4 -85 20 -13 14 -22 17 -29 10 -17 -17
-58 -11 -83 12 -28 26 -32 91 -7 126 14 21 23 23 82 20 l67 -3 3 -67z m282
-47 c0 -85 -1 -91 -26 -110 -34 -27 -64 -27 -64 -1 0 11 7 20 15 20 24 0 35
35 35 109 0 64 2 71 20 71 19 0 20 -7 20 -89z m-200 -111 c0 -13 -7 -20 -20
-20 -13 0 -20 7 -20 20 0 13 7 20 20 20 13 0 20 -7 20 -20z m1246 -111 c10
-17 -13 -36 -27 -22 -12 12 -4 33 11 33 5 0 12 -5 16 -11z m54 -15 c0 -16
-16 -19 -25 -4 -8 13 4 32 16 25 5 -4 9 -13 9 -21z m-718 -95 c-2 -50 -8 -87
-15 -91 -7 -4 -38 -8 -69 -8 -45 0 -58 3 -58 15 0 9 9 15 25 15 14 0 25 1 25
3 0 1 -9 30 -19 64 -13 43 -16 65 -9 70 16 9 33 -20 47 -82 17 -75 35 -67 39
16 3 76 8 92 25 86 9 -3 11 -27 9 -88z m230 14 l3 -78 198 -3 c182 -2 220 2
187 23 -20 13 -11 63 16 84 35 28 59 26 91 -5 25 -25 27 -43 8 -86 -6 -15 -2
-18 27 -18 28 0 35 5 45 30 24 63 103 62 125 -1 9 -26 15 -30 42 -27 l31 3 5
75 c4 58 8 75 20 75 12 0 14 -14 11 -78 l-3 -78 48 3 49 3 3 78 c2 59 6 77
17 77 12 0 15 -17 15 -83 0 -51 -5 -88 -12 -95 -8 -8 -49 -12 -119 -12 -84 0
-114 -4 -138 -17 -29 -17 -32 -17 -65 1 -31 17 -59 18 -321 17 -204 -1 -291 2
-301 10 -21 17 -20 179 1 179 11 0 15 -18 17 -77z m-542 37 c0 -21 -15 -27
-25 -10 -7 12 2 30 16 30 5 0 9 -9 9 -20z m60 0 c0 -11 -7 -20 -15 -20 -8 0
-15 9 -15 20 0 11 7 20 15 20 8 0 15 -9 15 -20z m-140 -54 c0 -53 20 -66
105 -66 80 0 85 4 85 66 0 24 5 34 15 34 19 0 21 -100 3 -118 -8 -8 -45 -12
-102 -12 -78 0 -93 3 -113 22 -28 26 -34 108 -8 108 10 0 15 -10 15 -34z m532
17 c14 -12 18 -31 18 -78 0 -63 -11 -85 -42 -85 -22 0 -24 18 -3 26 24 10 17
24 -12 24 -36 0 -63 27 -63 63 0 58 60 88 102 50z m-597 -83 c4 -7 -88 -10
-270 -10 -182 0 -274 3 -270 10 4 6 105 10 270 10 165 0 266 -4 270 -10z
m2210 0 c4 -7 -87 -10 -264 -10 -174 0 -271 4 -271 10 0 6 95 10 264 10 166 0
267 -4 271 -10z"/>
<path d="M3822 2238 l3 -423 30 0 30 0 3 423 2 422 -35 0 -35 0 2 -422z"/>
<path d="M3120 1815 c-1 -3 -1 -59 -1 -125 0 -66 0 -124 1 -130 0 -5 14 -10
30 -10 l30 0 0 135 0 135 -30 0 c-16 0 -30 -2 -30 -5z"/>
<path d="M2706 1122 c-8 -13 40 -36 59 -28 9 3 15 12 13 19 -5 14 -64 22 -72
9z"/>
<path d="M2444 1076 c-11 -29 1 -61 23 -64 29 -4 48 30 33 58 -12 23 -48 27
-56 6z"/>
<path d="M2971 1076 c-8 -10 -11 -26 -7 -42 5 -20 12 -25 34 -22 24 3 27 7 27
38 0 28 -4 36 -21 38 -11 2 -26 -4 -33 -12z"/>
<path d="M4080 1075 c-20 -24 -4 -65 25 -65 26 0 40 27 30 60 -7 24 -37 26
-55 5z"/>
<path d="M1822 1148 c-16 -16 -15 -63 2 -77 26 -22 46 -2 46 45 0 36 -3 44
-18 44 -10 0 -23 -5 -30 -12z"/>
<path d="M3307 763 c-11 -11 -8 -48 5 -61 30 -30 76 6 63 48 -6 20 -53 29 -68
13z"/>
<path d="M3504 706 c-3 -8 -4 -25 -2 -38 2 -17 9 -23 28 -23 20 0 26 6 28 29
5 39 -41 66 -54 32z"/>
<path d="M2734 726 c-11 -29 0 -51 26 -51 21 0 25 5 25 30 0 24 -5 31 -23 33
-13 2 -24 -3 -28 -12z"/>
</g>
</svg>